<svg width="73" height="86" viewBox="0 0 73 86" fill="none" xmlns="http://www.w3.org/2000/svg">
<path d="M6.25654 43.902C4.46243 42.1434 3.0295 40.043 2.04142 37.7253C1.05481 35.4061 0.530671 32.9138 0.501308 30.3905C0.471944 27.8701 0.937353 25.3645 1.86964 23.0231C2.8034 20.6832 4.18642 18.5518 5.93941 16.7502C7.69241 14.9502 9.78015 13.5125 12.0852 12.5289C14.3902 11.5409 16.8655 11.0232 19.3702 11.001C21.8735 10.9818 24.3576 11.461 26.6773 12.4091C28.997 13.3587 31.1097 14.7609 32.8906 16.5313C32.9802 16.6216 33.0683 16.7088 33.1564 16.7991L36.8121 20.4835L40.3871 16.7991C42.146 14.9886 44.2455 13.548 46.5622 12.5614C48.8761 11.5734 51.3632 11.0557 53.8781 11.0424C56.3931 11.0306 58.8861 11.5187 61.2131 12.4831C63.5387 13.4445 65.6529 14.8659 67.4294 16.6571C69.2073 18.4482 70.6153 20.5767 71.5725 22.921C72.5298 25.2654 73.0158 27.7769 72.9996 30.3106C72.9864 32.8443 72.4755 35.3484 71.4962 37.6824C70.5125 40.0135 69.084 42.1301 67.287 43.902L36.9751 74.4379L6.25654 43.902Z" fill="#D1C8FF"/>
<rect x="41" y="39.771" width="32" height="32" rx="10" fill="#D6F781"/>
<path d="M54.5 64.1043H59.5C63.6667 64.1043 65.3333 62.4376 65.3333 58.271V53.271C65.3333 49.1043 63.6667 47.4376 59.5 47.4376H54.5C50.3333 47.4376 48.6667 49.1043 48.6667 53.271V58.271C48.6667 62.4376 50.3333 64.1043 54.5 64.1043Z" stroke="#232428" stroke-width="1.5" stroke-linecap="round" stroke-linejoin="round"/>
<path d="M52.8333 52.646C53.6667 53.4793 55.025 53.4793 55.8667 52.646" stroke="#232428" stroke-width="1.5" stroke-miterlimit="10" stroke-linecap="round" stroke-linejoin="round"/>
<path d="M58.1333 52.646C58.9667 53.4793 60.325 53.4793 61.1667 52.646" stroke="#232428" stroke-width="1.5" stroke-miterlimit="10" stroke-linecap="round" stroke-linejoin="round"/>
<path d="M54 56.6043H60C60.4167 56.6043 60.75 56.9376 60.75 57.3543C60.75 59.4293 59.075 61.1043 57 61.1043C54.925 61.1043 53.25 59.4293 53.25 57.3543C53.25 56.9376 53.5833 56.6043 54 56.6043Z" stroke="#232428" stroke-width="1.5" stroke-miterlimit="10" stroke-linecap="round" stroke-linejoin="round"/>
</svg>
